<svg width="465" height="465" viewBox="0 0 465 465" fill="none" xmlns="http://www.w3.org/2000/svg">
<path d="M232.508 0C104.305 0 0 104.305 0 232.508C0 360.712 104.305 465 232.508 465C360.712 465 465 360.695 465 232.508C465 104.321 360.695 0 232.508 0ZM232.508 462.944C105.391 462.944 1.98882 359.609 1.98882 232.508C1.98882 105.408 105.391 1.98882 232.508 1.98882C359.626 1.98882 462.944 105.391 462.944 232.508C462.944 359.626 359.609 462.944 232.508 462.944Z" fill="white"/>
<path d="M85.8202 252.731C85.9834 252.709 86.1495 252.725 86.3056 252.777C86.4616 252.83 86.6034 252.918 86.7199 253.034C86.8363 253.151 86.9244 253.293 86.977 253.449C87.0297 253.605 87.0456 253.771 87.0235 253.934V258.179C87.0127 258.289 87.0267 258.399 87.0643 258.503C87.1019 258.606 87.1622 258.7 87.2408 258.777C87.3193 258.854 87.4142 258.912 87.5183 258.947C87.6225 258.983 87.7332 258.994 87.8425 258.981C88.0586 258.966 88.2612 258.871 88.4107 258.714C88.5595 258.562 88.6434 258.358 88.6447 258.146L88.3438 243.372C88.3286 243.156 88.2333 242.953 88.0764 242.803C87.9307 242.656 87.7324 242.572 87.5249 242.569V242.569C87.4156 242.57 87.3075 242.593 87.2071 242.636C87.1066 242.679 87.0158 242.741 86.94 242.82C86.7916 242.979 86.7081 243.188 86.706 243.405L86.823 249.104C86.8532 249.27 86.844 249.44 86.7962 249.601C86.7483 249.762 86.6631 249.91 86.5475 250.032C86.432 250.154 86.2892 250.247 86.1309 250.304C85.9726 250.36 85.8032 250.379 85.6364 250.358L39.3419 251.294L87.8257 213.924V211.601L33.5092 212.704C33.1888 212.723 32.8729 212.621 32.6234 212.42C32.5103 212.296 32.4237 212.151 32.3691 211.993C32.3144 211.835 32.2929 211.667 32.3058 211.5L32.1554 207.239C32.1436 207.022 32.0477 206.818 31.888 206.67C31.8183 206.594 31.733 206.534 31.6378 206.493C31.5426 206.453 31.4399 206.433 31.3365 206.436V206.436C31.2269 206.435 31.1182 206.457 31.0175 206.5C30.9168 206.543 30.8262 206.607 30.7516 206.687C30.6031 206.846 30.5197 207.055 30.5176 207.272L30.8184 222.029C30.8303 222.246 30.9262 222.45 31.0858 222.598C31.1587 222.674 31.247 222.735 31.3449 222.775C31.4429 222.816 31.5482 222.835 31.654 222.832V222.832C31.7664 222.846 31.8805 222.834 31.9874 222.796C32.0944 222.759 32.1912 222.698 32.2705 222.617C32.3498 222.536 32.4093 222.438 32.4444 222.33C32.4795 222.222 32.4893 222.108 32.473 221.996L32.356 216.297C32.3288 216.131 32.3407 215.96 32.3908 215.799C32.4409 215.638 32.5277 215.491 32.6444 215.37C32.7612 215.248 32.9046 215.155 33.0634 215.099C33.2222 215.042 33.392 215.023 33.5593 215.043L77.4972 214.158L31.3866 248.853L31.6039 259.282C31.6028 259.389 31.6246 259.495 31.6679 259.593C31.7111 259.691 31.7748 259.779 31.8546 259.85C31.9275 259.927 32.0158 259.988 32.1137 260.028C32.2117 260.068 32.317 260.088 32.4228 260.084V260.084C32.5329 260.095 32.6439 260.081 32.7479 260.043C32.8519 260.005 32.9463 259.945 33.0245 259.867C33.1704 259.696 33.2425 259.473 33.225 259.249L33.1415 255.02C33.1106 254.854 33.1199 254.682 33.1686 254.519C33.2173 254.356 33.3041 254.208 33.4216 254.085C33.5392 253.963 33.6843 253.87 33.8448 253.815C34.0053 253.759 34.1767 253.743 34.3448 253.767L85.7868 252.714L85.8202 252.731Z" fill="white"/>
<path d="M49.5701 179.328C53.2261 183.177 57.6975 186.158 62.6562 188.052C66.9574 189.851 71.565 190.805 76.227 190.86C76.8621 190.86 77.4972 190.86 78.1323 190.86C82.8296 190.632 87.3739 189.117 91.2685 186.481C95.0265 183.818 97.9388 180.13 99.6576 175.856C101.376 171.583 101.829 166.905 100.962 162.381C99.9638 157.791 97.7202 153.564 94.4774 150.164C90.8151 146.331 86.3447 143.363 81.3913 141.474C76.502 139.414 71.2148 138.472 65.9152 138.716C61.2271 138.925 56.6873 140.422 52.7957 143.045C49.0406 145.707 46.1302 149.393 44.4116 153.663C42.6929 157.933 42.2384 162.607 43.1023 167.128C44.113 171.706 46.3486 175.923 49.5701 179.328V179.328ZM45.9434 154.259C47.2375 150.958 49.7166 148.258 52.8959 146.688C56.1265 145.119 59.6838 144.34 63.2746 144.415H64.5949C69.5081 144.709 74.335 145.839 78.8676 147.758C83.4638 149.525 87.7253 152.063 91.4691 155.262C94.567 157.847 96.9398 161.193 98.3547 164.972C99.5388 168.321 99.4604 171.987 98.1342 175.282C96.8081 178.578 94.3253 181.276 91.1515 182.871C87.5104 184.615 83.4801 185.386 79.4526 185.111C74.5257 184.837 69.6844 183.706 65.1464 181.768C60.5553 179.996 56.3038 177.446 52.5784 174.231C49.4906 171.636 47.1198 168.293 45.6927 164.521C44.483 161.173 44.5725 157.494 45.9434 154.209V154.259Z" fill="white"/>
<path d="M72.7007 106.344L75.6923 103.352C75.7943 103.229 75.922 103.13 76.0664 103.063C76.2108 102.995 76.3684 102.96 76.5279 102.96C76.6875 102.96 76.8451 102.995 76.9895 103.063C77.1339 103.13 77.2616 103.229 77.3636 103.352L113.864 139.719C113.987 139.821 114.086 139.949 114.154 140.093C114.221 140.237 114.257 140.395 114.257 140.555C114.257 140.714 114.221 140.872 114.154 141.016C114.086 141.161 113.987 141.288 113.864 141.39L110.873 144.382C110.786 144.454 110.714 144.543 110.662 144.643C110.611 144.744 110.58 144.854 110.572 144.967C110.595 145.193 110.702 145.402 110.873 145.552C110.947 145.626 111.036 145.685 111.134 145.725C111.231 145.765 111.336 145.786 111.441 145.786C111.549 145.788 111.657 145.769 111.757 145.729C111.858 145.688 111.949 145.628 112.026 145.552L122.471 135.09C122.544 135.014 122.6 134.925 122.637 134.827C122.675 134.73 122.692 134.626 122.689 134.521C122.693 134.414 122.677 134.307 122.639 134.207C122.602 134.106 122.545 134.014 122.471 133.936C122.314 133.785 122.105 133.701 121.886 133.702C121.778 133.7 121.671 133.719 121.57 133.76C121.47 133.8 121.378 133.86 121.302 133.936L117.274 137.964C117.172 138.087 117.044 138.186 116.9 138.253C116.755 138.321 116.598 138.356 116.438 138.356C116.279 138.356 116.121 138.321 115.977 138.253C115.832 138.186 115.704 138.087 115.602 137.964L82.7618 105.291L143.212 114.299L144.883 112.728L106.444 74.2884C106.321 74.1865 106.222 74.0587 106.155 73.9143C106.087 73.7699 106.052 73.6123 106.052 73.4528C106.052 73.2932 106.087 73.1356 106.155 72.9912C106.222 72.8468 106.321 72.7191 106.444 72.6171L109.435 69.6255C109.512 69.5489 109.572 69.4575 109.612 69.357C109.652 69.2564 109.672 69.1488 109.669 69.0406C109.671 68.8225 109.587 68.6126 109.435 68.4556C109.359 68.3792 109.267 68.319 109.167 68.2788C109.066 68.2386 108.959 68.2192 108.85 68.2216C108.632 68.2203 108.423 68.3043 108.266 68.4556L97.8368 78.9178C97.7603 78.9945 97.7002 79.0858 97.6599 79.1864C97.6197 79.2869 97.6003 79.3945 97.6028 79.5028C97.6025 79.6082 97.6231 79.7127 97.6632 79.8102C97.7033 79.9077 97.7623 79.9963 97.8368 80.071C97.9036 80.1609 97.9906 80.2339 98.0907 80.2842C98.1908 80.3345 98.3013 80.3607 98.4133 80.3607C98.5254 80.3607 98.6359 80.3345 98.736 80.2842C98.8361 80.2339 98.9231 80.1609 98.9899 80.071L103.034 76.0432C103.135 75.9178 103.262 75.8166 103.406 75.747C103.551 75.6774 103.71 75.6413 103.87 75.6413C104.031 75.6413 104.189 75.6774 104.334 75.747C104.478 75.8166 104.606 75.9178 104.706 76.0432L135.875 106.962L78.9513 97.82L71.5308 105.19C71.4544 105.267 71.3942 105.358 71.354 105.459C71.3138 105.559 71.2944 105.667 71.2968 105.775C71.2966 105.881 71.3171 105.985 71.3573 106.083C71.3974 106.18 71.4564 106.269 71.5308 106.344C71.5994 106.434 71.6879 106.507 71.7894 106.557C71.8909 106.607 72.0025 106.633 72.1158 106.633C72.229 106.633 72.3407 106.607 72.4422 106.557C72.5436 106.507 72.6321 106.434 72.7007 106.344V106.344Z" fill="white"/>
<path d="M139.218 51.1077C139.421 51.1896 139.649 51.1896 139.853 51.1077L143.73 49.4699C143.883 49.4055 144.048 49.3724 144.215 49.3724C144.381 49.3724 144.546 49.4055 144.699 49.4699C144.857 49.5256 145.001 49.614 145.122 49.7292C145.243 49.8444 145.338 49.9838 145.401 50.1384L164.788 97.82C164.874 97.964 164.925 98.1262 164.936 98.2934C164.948 98.4607 164.92 98.6283 164.855 98.7828C164.79 98.9374 164.69 99.0744 164.562 99.183C164.434 99.2915 164.283 99.3685 164.12 99.4077L160.192 101.079C160.084 101.108 159.984 101.161 159.899 101.235C159.815 101.308 159.748 101.4 159.705 101.503C159.661 101.607 159.642 101.718 159.648 101.83C159.654 101.942 159.686 102.051 159.741 102.149C159.781 102.249 159.842 102.339 159.92 102.414C159.998 102.489 160.091 102.546 160.192 102.583C160.297 102.607 160.405 102.607 160.51 102.583H160.81L178.559 95.2629C178.659 95.2224 178.75 95.1613 178.825 95.0836C178.9 95.0058 178.957 94.9132 178.994 94.8117C179.035 94.7137 179.056 94.6086 179.056 94.5025C179.056 94.3963 179.035 94.2913 178.994 94.1933C178.908 93.9901 178.746 93.8284 178.543 93.7421C178.445 93.7002 178.34 93.6787 178.234 93.6787C178.127 93.6787 178.022 93.7002 177.924 93.7421L171.958 96.1654C171.804 96.2298 171.64 96.2629 171.473 96.2629C171.307 96.2629 171.142 96.2298 170.989 96.1654C170.693 96.0073 170.467 95.7453 170.353 95.4301L159.407 68.606L169.685 64.4111C170.977 63.8077 172.387 63.4995 173.813 63.5086C175.1 63.678 176.285 64.3 177.156 65.2635C178.548 66.8376 179.677 68.6267 180.498 70.5614C180.623 70.7214 180.776 70.8573 180.949 70.9625C181.033 71.0026 181.124 71.0233 181.217 71.0233C181.309 71.0233 181.401 71.0026 181.484 70.9625C181.57 70.9271 181.646 70.8725 181.706 70.803C181.767 70.7334 181.811 70.6508 181.835 70.5614C181.901 70.3606 181.901 70.1438 181.835 69.9431L174.181 50.974C174.104 50.7813 173.962 50.6216 173.78 50.5228C173.696 50.4828 173.605 50.462 173.512 50.462C173.42 50.462 173.328 50.4828 173.245 50.5228C173.085 50.5958 172.959 50.7274 172.894 50.8905C172.834 51.0866 172.834 51.296 172.894 51.4921C173.494 53.3785 173.804 55.3453 173.813 57.3249C173.799 58.5427 173.375 59.7203 172.61 60.6675C171.633 61.6647 170.445 62.43 169.133 62.907L158.771 67.0852L150.515 46.7958L166.209 40.4116C167.986 39.6263 169.898 39.1894 171.841 39.1247H171.958C173.74 39.1607 175.476 39.6932 176.972 40.6622C179.021 42.0023 180.896 43.591 182.554 45.392C182.678 45.548 182.851 45.6577 183.045 45.7032C183.239 45.7487 183.443 45.7273 183.623 45.6427C183.725 45.6103 183.818 45.5539 183.894 45.4783C183.969 45.4027 184.026 45.31 184.058 45.2081C184.103 44.9586 184.068 44.7012 183.958 44.4728L183.857 44.2555L177.59 34.0941L139.318 49.6704C139.218 49.7109 139.127 49.772 139.052 49.8498C138.978 49.9275 138.92 50.0202 138.883 50.1217C138.842 50.2196 138.821 50.3247 138.821 50.4309C138.821 50.537 138.842 50.6421 138.883 50.7401C138.957 50.8925 139.073 51.0203 139.218 51.1077V51.1077Z" fill="white"/>
<path d="M225.907 83.1461L221.678 83.5807C221.516 83.6117 221.349 83.6084 221.188 83.571C221.026 83.5336 220.875 83.4629 220.743 83.3634C220.621 83.2493 220.523 83.1124 220.454 82.9604C220.385 82.8084 220.347 82.6444 220.341 82.4776L215.11 31.2863C215.065 31.123 215.059 30.9512 215.093 30.7851C215.128 30.6191 215.201 30.4635 215.307 30.3313C215.413 30.1991 215.549 30.094 215.704 30.0247C215.858 29.9554 216.027 29.9238 216.197 29.9326L220.425 29.4981C220.531 29.4917 220.634 29.4613 220.727 29.4092C220.82 29.3571 220.899 29.2846 220.96 29.1972C221.033 29.1184 221.089 29.0251 221.124 28.9234C221.158 28.8217 221.172 28.7138 221.162 28.6067C221.153 28.4996 221.121 28.3957 221.069 28.3017C221.017 28.2076 220.945 28.1256 220.86 28.0608C220.692 27.919 220.477 27.8472 220.258 27.8602L203.378 29.5315C203.27 29.54 203.165 29.5712 203.07 29.623C202.975 29.6748 202.892 29.7462 202.826 29.8323C202.694 30.0036 202.628 30.2177 202.643 30.434C202.654 30.656 202.749 30.8653 202.91 31.0189C203.097 31.1423 203.322 31.1955 203.545 31.1693L207.757 30.7348C207.921 30.699 208.09 30.6983 208.255 30.7329C208.419 30.7675 208.574 30.8365 208.709 30.9354C208.949 31.1698 209.093 31.486 209.11 31.8211L214.342 83.0291C214.372 83.1933 214.371 83.362 214.336 83.5254C214.302 83.6889 214.235 83.844 214.141 83.9818C214.026 84.1012 213.889 84.1967 213.737 84.2627C213.585 84.3287 213.421 84.3638 213.255 84.3662L209.027 84.8007C208.914 84.7977 208.803 84.8206 208.701 84.8675C208.599 84.9144 208.509 84.9841 208.437 85.0713C208.366 85.1584 208.316 85.2607 208.291 85.3703C208.266 85.4798 208.266 85.5937 208.292 85.7032C208.322 85.9171 208.429 86.1128 208.592 86.2547C208.737 86.3764 208.921 86.4417 209.11 86.4385V86.4385L225.99 84.7673C226.204 84.7363 226.4 84.6295 226.542 84.4664C226.675 84.2951 226.74 84.0811 226.726 83.8648C226.695 83.6508 226.588 83.4551 226.425 83.3132C226.279 83.1948 226.094 83.1352 225.907 83.1461V83.1461Z" fill="white"/>
<path d="M284.886 82.4442C285.005 82.2753 285.069 82.074 285.069 81.8676C285.069 81.6612 285.005 81.4599 284.886 81.291C284.806 81.1941 284.703 81.1188 284.586 81.0721C284.469 81.0254 284.343 81.0087 284.218 81.0236C283.935 81.0754 283.673 81.2091 283.466 81.408C281.066 84.1382 277.978 86.1754 274.524 87.3076C271.353 88.3406 267.973 88.5534 264.697 87.926C261.142 87.2505 257.95 85.3162 255.706 82.4776C253.178 79.2299 251.531 75.3843 250.926 71.3135C250.164 66.4518 250.283 61.4927 251.277 56.6731C252.147 51.8408 253.879 47.2044 256.391 42.9853C258.405 39.4477 261.279 36.4758 264.747 34.3448C267.712 32.5492 271.236 31.9123 274.641 32.5565C276.775 32.8678 278.819 33.6238 280.641 34.7754C282.463 35.927 284.024 37.4486 285.221 39.2416C287.703 43.6895 288.944 48.7231 288.814 53.8152C288.809 54.0716 288.885 54.3231 289.031 54.5338C289.157 54.7333 289.354 54.8769 289.583 54.9349C289.688 54.9546 289.796 54.9482 289.898 54.9161C290 54.884 290.093 54.8274 290.167 54.7511C290.35 54.5558 290.471 54.312 290.518 54.0492L293.009 36.2166C293.023 36.1385 293.021 36.0584 293.004 35.981C292.986 35.9035 292.954 35.8303 292.908 35.7654C292.876 35.7056 292.83 35.6537 292.775 35.6133C292.721 35.5729 292.658 35.5449 292.591 35.5314C292.357 35.5314 292.173 35.5314 292.006 35.8489L290.034 39.6595C288.062 37.4329 285.756 35.5271 283.198 34.0105C280.414 32.4247 277.378 31.328 274.223 30.7682C269.84 29.8787 265.29 30.3571 261.188 32.1387C256.953 34.0501 253.324 37.0846 250.692 40.9129C247.654 45.2403 245.6 50.1804 244.675 55.3862C243.58 60.5811 243.666 65.9556 244.926 71.1129C246.038 75.6778 248.379 79.851 251.695 83.1796C254.989 86.4155 259.183 88.5823 263.728 89.3967C265.351 89.7207 267.003 89.883 268.658 89.8814C270.923 89.9007 273.177 89.5738 275.343 88.912C279.045 87.6481 282.341 85.4146 284.886 82.4442V82.4442Z" fill="white"/>
<path d="M302.284 102.516L317.81 112.427C317.934 112.511 318.079 112.558 318.228 112.561H318.429C318.536 112.539 318.637 112.495 318.727 112.431C318.816 112.368 318.891 112.287 318.947 112.193C319.005 112.105 319.043 112.006 319.061 111.903C319.078 111.799 319.073 111.693 319.047 111.591C319.028 111.485 318.987 111.384 318.927 111.295C318.866 111.206 318.788 111.13 318.696 111.073L314.501 108.382C314.35 108.314 314.217 108.211 314.113 108.082C314.008 107.952 313.935 107.801 313.9 107.639C313.864 107.477 313.866 107.308 313.907 107.147C313.948 106.986 314.025 106.837 314.134 106.711L342.545 62.3053L350.668 67.5029C352.193 68.3597 353.506 69.5476 354.512 70.9792C355.156 72.1032 355.43 73.401 355.297 74.6894C355.015 76.9474 354.568 79.1817 353.96 81.3746C353.909 81.6097 353.929 81.8548 354.018 82.0782C354.108 82.3017 354.262 82.4932 354.461 82.628C354.581 82.7033 354.723 82.733 354.863 82.7116C354.99 82.6696 355.108 82.602 355.209 82.513C355.309 82.4239 355.39 82.3151 355.448 82.1935C355.582 82.0116 355.683 81.8081 355.748 81.5918L359.893 71.5642L321.805 47.1133L314.401 55.1522C314.232 55.305 314.09 55.4859 313.983 55.687C313.812 55.892 313.728 56.1561 313.749 56.4224C313.786 56.5623 313.876 56.6824 314 56.7566C314.204 56.8897 314.442 56.9605 314.685 56.9605C314.928 56.9605 315.166 56.8897 315.37 56.7566C317.084 55.2865 318.906 53.9457 320.819 52.7456C321.935 52.0949 323.224 51.8031 324.512 51.9099C326.213 52.1958 327.829 52.8582 329.242 53.8486L337.364 59.0296L308.953 103.435C308.881 103.584 308.777 103.715 308.648 103.817C308.518 103.919 308.368 103.991 308.206 104.027C308.045 104.062 307.878 104.06 307.718 104.022C307.558 103.983 307.408 103.908 307.281 103.803L303.103 101.129C303.012 101.064 302.909 101.016 302.8 100.991C302.692 100.965 302.579 100.961 302.468 100.979C302.256 101.043 302.076 101.187 301.967 101.38C301.909 101.471 301.871 101.573 301.854 101.679C301.836 101.785 301.841 101.894 301.866 101.998C301.893 102.11 301.944 102.215 302.016 102.305C302.089 102.394 302.18 102.467 302.284 102.516Z" fill="white"/>
<path d="M380.116 94.3771C380.237 94.494 380.334 94.6341 380.4 94.7892C380.466 94.9443 380.5 95.1111 380.5 95.2796C380.452 95.61 380.278 95.9091 380.015 96.1153L341.292 130.026C341.182 130.142 341.047 130.232 340.898 130.29C340.749 130.348 340.588 130.372 340.429 130.361C340.269 130.35 340.114 130.303 339.974 130.225C339.834 130.147 339.714 130.039 339.621 129.909L336.83 126.716C336.766 126.627 336.683 126.553 336.588 126.498C336.493 126.443 336.387 126.409 336.278 126.399C336.066 126.407 335.865 126.493 335.714 126.642C335.562 126.79 335.471 126.989 335.459 127.201C335.44 127.418 335.506 127.634 335.643 127.803L346.824 140.555C346.896 140.635 346.983 140.7 347.081 140.746C347.178 140.792 347.284 140.818 347.392 140.822C347.582 140.83 347.768 140.764 347.91 140.638C347.993 140.567 348.061 140.48 348.11 140.383C348.158 140.285 348.187 140.179 348.194 140.07C348.199 139.852 348.129 139.639 347.994 139.468L345.203 136.276C345.08 136.164 344.983 136.027 344.916 135.874C344.85 135.721 344.817 135.557 344.818 135.39C344.84 135.224 344.896 135.064 344.982 134.92C345.068 134.776 345.183 134.652 345.32 134.555L384.027 100.644C384.137 100.528 384.271 100.438 384.421 100.38C384.57 100.322 384.73 100.298 384.89 100.309C385.049 100.32 385.205 100.367 385.344 100.445C385.484 100.523 385.605 100.631 385.698 100.761L388.489 103.954C388.561 104.034 388.648 104.099 388.746 104.145C388.843 104.191 388.949 104.217 389.057 104.221C389.163 104.232 389.271 104.22 389.372 104.185C389.473 104.151 389.565 104.094 389.642 104.02C389.724 103.953 389.792 103.869 389.841 103.774C389.89 103.679 389.919 103.575 389.926 103.469C389.939 103.25 389.867 103.035 389.726 102.867L378.545 90.0987C378.389 89.9505 378.183 89.8679 377.968 89.8679C377.753 89.8679 377.547 89.9505 377.392 90.0987C377.302 90.1626 377.228 90.2449 377.173 90.34C377.118 90.4351 377.084 90.5409 377.074 90.6502C377.071 90.761 377.09 90.8712 377.131 90.9745C377.171 91.0778 377.231 91.1721 377.308 91.2518L380.116 94.3771Z" fill="white"/>
<path d="M369.119 147.741C365.952 151.218 363.796 155.495 362.885 160.109C362.099 164.645 362.634 169.312 364.427 173.552C366.22 177.793 369.194 181.428 372.996 184.025C376.929 186.584 381.492 188.007 386.183 188.136H387.436C392.318 188.066 397.137 187.021 401.608 185.061C406.501 183.074 410.895 180.032 414.477 176.153C417.683 172.692 419.869 168.411 420.795 163.785C421.584 159.246 421.051 154.576 419.258 150.332C417.465 146.089 414.488 142.451 410.683 139.853C406.745 137.29 402.177 135.861 397.48 135.725C392.174 135.644 386.909 136.666 382.019 138.726C377.128 140.786 372.718 143.839 369.069 147.691L369.119 147.741ZM398.918 141.49H400.589C404.047 141.415 407.477 142.129 410.617 143.58C413.815 145.121 416.343 147.774 417.727 151.044C419.111 154.314 419.257 157.976 418.137 161.345C416.795 165.148 414.492 168.539 411.452 171.189C407.76 174.442 403.545 177.047 398.985 178.894C394.487 180.883 389.683 182.087 384.779 182.454C380.769 182.791 376.739 182.089 373.08 180.415C369.884 178.87 367.358 176.217 365.974 172.948C364.59 169.679 364.443 166.018 365.559 162.649C366.927 158.864 369.226 155.484 372.244 152.822C379.737 146.322 389.101 142.372 398.985 141.541L398.918 141.49Z" fill="white"/>
<path d="M434.265 206.921C434.195 206.839 434.107 206.773 434.01 206.727C433.912 206.681 433.805 206.656 433.697 206.654V206.654C433.589 206.643 433.48 206.657 433.378 206.694C433.276 206.73 433.183 206.789 433.107 206.866C433.03 206.942 432.971 207.035 432.935 207.137C432.898 207.239 432.884 207.348 432.895 207.456L432.811 211.701C432.825 212.039 432.705 212.37 432.477 212.62C432.236 212.826 431.924 212.928 431.608 212.904V212.904L380.149 211.818C379.981 211.827 379.813 211.802 379.656 211.744C379.498 211.687 379.353 211.598 379.23 211.484C379.018 211.226 378.916 210.896 378.946 210.564L379.046 206.319C379.059 206.208 379.047 206.095 379.011 205.989C378.974 205.883 378.915 205.786 378.836 205.706C378.758 205.626 378.662 205.564 378.557 205.526C378.451 205.487 378.339 205.473 378.227 205.484V205.484C378.122 205.484 378.017 205.504 377.92 205.544C377.822 205.584 377.734 205.643 377.659 205.718C377.499 205.865 377.403 206.069 377.391 206.286L377.091 221.043C377.083 221.152 377.1 221.262 377.14 221.363C377.181 221.464 377.244 221.555 377.325 221.628C377.472 221.788 377.676 221.884 377.893 221.896C378.105 221.894 378.309 221.811 378.461 221.662C378.617 221.506 378.707 221.297 378.712 221.077L378.829 215.378C378.808 215.211 378.826 215.042 378.883 214.883C378.939 214.725 379.033 214.582 379.155 214.467C379.277 214.351 379.424 214.266 379.586 214.218C379.747 214.17 379.917 214.161 380.082 214.191L426.36 215.161L376.489 250.441V252.681V252.781L430.806 253.917C430.973 253.897 431.143 253.916 431.301 253.973C431.46 254.029 431.604 254.122 431.72 254.244C431.837 254.365 431.924 254.512 431.974 254.673C432.024 254.834 432.036 255.005 432.009 255.171V259.416C432.002 259.521 432.019 259.626 432.056 259.724C432.093 259.822 432.151 259.91 432.226 259.984C432.301 260.065 432.391 260.131 432.492 260.176C432.592 260.222 432.701 260.248 432.811 260.252C433.019 260.25 433.217 260.165 433.363 260.018C433.519 259.868 433.615 259.666 433.63 259.449L433.931 244.675C433.938 244.567 433.92 244.458 433.88 244.356C433.839 244.255 433.777 244.164 433.697 244.09C433.548 243.935 433.344 243.845 433.129 243.84V243.84C433.021 243.829 432.912 243.843 432.81 243.88C432.708 243.916 432.615 243.975 432.538 244.052C432.462 244.128 432.403 244.221 432.366 244.323C432.33 244.425 432.316 244.534 432.326 244.642L432.209 250.341C432.224 250.677 432.111 251.005 431.892 251.26C431.763 251.369 431.614 251.45 431.453 251.499C431.292 251.547 431.123 251.563 430.956 251.544L386.767 250.692L434.248 218.002L434.466 207.573C434.492 207.456 434.487 207.335 434.452 207.22C434.417 207.106 434.353 207.003 434.265 206.921V206.921Z" fill="white"/>
<path d="M415.447 285.672C411.791 281.823 407.319 278.842 402.361 276.948C398.059 275.149 393.452 274.195 388.79 274.14C388.155 274.14 387.503 274.14 386.884 274.14C382.185 274.373 377.638 275.881 373.731 278.502C369.98 281.17 367.073 284.86 365.358 289.132C363.642 293.405 363.19 298.08 364.055 302.602C365.054 307.189 367.291 311.414 370.523 314.819C374.251 318.576 378.707 321.533 383.619 323.507C388.53 325.482 393.793 326.432 399.085 326.301C403.78 326.087 408.325 324.583 412.221 321.955C415.973 319.287 418.879 315.597 420.595 311.325C422.31 307.053 422.763 302.377 421.898 297.855C420.891 293.285 418.661 289.074 415.447 285.672V285.672ZM419.073 310.741C417.772 314.038 415.295 316.735 412.121 318.312C408.893 319.889 405.334 320.669 401.742 320.585C401.308 320.585 400.873 320.585 400.422 320.585C390.555 319.886 381.156 316.11 373.548 309.788C370.45 307.203 368.077 303.857 366.662 300.078C365.48 296.731 365.558 293.068 366.881 289.774C368.203 286.479 370.68 283.78 373.848 282.179C377.495 280.451 381.521 279.68 385.547 279.939C395.431 280.617 404.843 284.421 412.422 290.803C415.504 293.402 417.874 296.744 419.307 300.513C420.531 303.868 420.448 307.561 419.073 310.858V310.741Z" fill="white"/>
<path d="M392.316 358.657L389.408 361.648C389.306 361.771 389.178 361.87 389.034 361.937C388.89 362.005 388.732 362.04 388.572 362.04C388.413 362.04 388.255 362.005 388.111 361.937C387.967 361.87 387.839 361.771 387.737 361.648L351.303 325.264C351.18 325.162 351.081 325.035 351.014 324.89C350.946 324.746 350.911 324.588 350.911 324.429C350.911 324.269 350.946 324.112 351.014 323.967C351.081 323.823 351.18 323.695 351.303 323.593V323.593L354.295 320.601C354.381 320.53 354.451 320.441 354.5 320.34C354.549 320.239 354.576 320.129 354.579 320.017C354.563 319.792 354.461 319.582 354.295 319.432C354.218 319.355 354.127 319.295 354.026 319.255C353.925 319.215 353.818 319.195 353.71 319.198C353.604 319.197 353.5 319.218 353.402 319.258C353.305 319.298 353.216 319.357 353.141 319.432L342.612 329.844C342.536 329.92 342.476 330.012 342.436 330.112C342.395 330.213 342.376 330.32 342.378 330.429C342.378 330.534 342.399 330.639 342.439 330.736C342.479 330.834 342.538 330.922 342.612 330.997C342.771 331.146 342.98 331.229 343.197 331.229C343.415 331.229 343.624 331.146 343.782 330.997L347.81 326.969C347.912 326.846 348.04 326.748 348.184 326.68C348.329 326.612 348.486 326.577 348.646 326.577C348.805 326.577 348.963 326.612 349.107 326.68C349.252 326.748 349.379 326.846 349.481 326.969L382.238 359.676L321.805 350.668L320.234 352.339L358.673 390.779C358.796 390.88 358.895 391.008 358.963 391.153C359.03 391.297 359.065 391.455 359.065 391.614C359.065 391.774 359.03 391.931 358.963 392.076C358.895 392.22 358.796 392.348 358.673 392.45L355.682 395.441C355.53 395.598 355.446 395.808 355.448 396.026C355.445 396.134 355.465 396.242 355.505 396.342C355.546 396.443 355.606 396.534 355.683 396.61C355.759 396.687 355.85 396.747 355.951 396.788C356.051 396.828 356.158 396.848 356.267 396.845C356.372 396.845 356.477 396.825 356.574 396.785C356.672 396.745 356.76 396.686 356.835 396.611L367.28 386.149C367.355 386.074 367.414 385.986 367.454 385.888C367.494 385.791 367.515 385.686 367.514 385.581C367.517 385.473 367.497 385.365 367.457 385.264C367.417 385.164 367.357 385.073 367.28 384.996C367.212 384.906 367.123 384.833 367.022 384.783C366.92 384.732 366.809 384.706 366.695 384.706C366.582 384.706 366.471 384.732 366.369 384.783C366.268 384.833 366.179 384.906 366.11 384.996L362.083 389.024C361.981 389.146 361.853 389.245 361.709 389.313C361.564 389.381 361.407 389.416 361.247 389.416C361.088 389.416 360.93 389.381 360.786 389.313C360.641 389.245 360.513 389.146 360.411 389.024L329.309 357.955L386.066 367.197L393.436 359.81C393.514 359.737 393.575 359.649 393.615 359.551C393.655 359.453 393.674 359.347 393.67 359.241C393.676 359.133 393.658 359.024 393.617 358.923C393.577 358.822 393.515 358.731 393.436 358.657C393.369 358.573 393.283 358.505 393.186 358.459C393.09 358.412 392.983 358.388 392.876 358.388C392.769 358.388 392.663 358.412 392.566 358.459C392.469 358.505 392.384 358.573 392.316 358.657Z" fill="white"/>
<path d="M325.799 413.909C325.696 413.864 325.585 413.841 325.473 413.841C325.361 413.841 325.25 413.864 325.147 413.909L321.22 415.497C321.067 415.565 320.902 415.6 320.735 415.6C320.568 415.6 320.403 415.565 320.251 415.497C320.103 415.422 319.972 415.319 319.866 415.192C319.76 415.066 319.68 414.919 319.632 414.761L300.212 367.096C300.112 366.948 300.05 366.778 300.032 366.6C300.014 366.422 300.04 366.243 300.108 366.078C300.176 365.912 300.283 365.766 300.421 365.653C300.558 365.539 300.722 365.461 300.897 365.425L304.825 363.754C304.933 363.725 305.033 363.672 305.117 363.598C305.202 363.524 305.268 363.433 305.312 363.329C305.355 363.226 305.375 363.114 305.368 363.003C305.362 362.891 305.331 362.782 305.276 362.684C305.235 362.584 305.174 362.494 305.097 362.419C305.019 362.344 304.926 362.286 304.825 362.25C304.714 362.226 304.601 362.226 304.49 362.25C304.396 362.232 304.3 362.232 304.206 362.25L286.457 369.687C286.357 369.727 286.267 369.789 286.192 369.866C286.117 369.944 286.059 370.037 286.023 370.138C285.978 370.235 285.955 370.341 285.955 370.447C285.955 370.554 285.978 370.66 286.023 370.757C286.063 370.859 286.124 370.951 286.202 371.029C286.279 371.107 286.372 371.167 286.474 371.208C286.571 371.253 286.676 371.276 286.783 371.276C286.89 371.276 286.995 371.253 287.092 371.208L293.059 368.784C293.371 368.663 293.716 368.663 294.028 368.784C294.324 368.946 294.545 369.215 294.647 369.536L305.61 396.461L295.332 400.656C294.02 401.246 292.591 401.531 291.154 401.491C289.867 401.319 288.683 400.698 287.811 399.736C286.414 398.172 285.285 396.387 284.468 394.455C284.346 394.282 284.186 394.139 284 394.037C283.917 393.997 283.826 393.977 283.733 393.977C283.641 393.977 283.549 393.997 283.466 394.037C283.382 394.078 283.309 394.136 283.251 394.208C283.193 394.281 283.152 394.365 283.131 394.455C283.057 394.649 283.057 394.863 283.131 395.057L290.803 414.026C290.836 414.124 290.888 414.215 290.957 414.293C291.026 414.37 291.11 414.433 291.204 414.477C291.286 414.521 291.378 414.544 291.471 414.544C291.564 414.544 291.656 414.521 291.738 414.477C291.895 414.399 292.019 414.269 292.089 414.11C292.14 413.912 292.14 413.705 292.089 413.508C291.497 411.62 291.187 409.654 291.17 407.675C291.193 406.456 291.622 405.279 292.39 404.333C293.365 403.337 294.554 402.577 295.867 402.11L306.128 397.915L314.485 418.271L298.791 424.655C297.013 425.439 295.101 425.875 293.159 425.942H293.042C291.26 425.906 289.524 425.374 288.028 424.405C285.977 423.061 284.097 421.473 282.429 419.675C282.31 419.518 282.14 419.407 281.948 419.361C281.756 419.315 281.554 419.338 281.377 419.424C281.271 419.454 281.174 419.511 281.098 419.591C281.022 419.67 280.968 419.768 280.942 419.875C280.898 420.12 280.934 420.371 281.042 420.594L281.126 420.811L287.393 430.973L325.649 415.396C325.852 415.31 326.014 415.148 326.1 414.945C326.141 414.847 326.162 414.742 326.162 414.636C326.162 414.53 326.141 414.425 326.1 414.327C326.051 414.157 325.944 414.01 325.799 413.909V413.909Z" fill="white"/>
<path d="M261.472 433.78L257.243 434.198C257.079 434.232 256.91 434.232 256.746 434.197C256.582 434.163 256.427 434.095 256.291 433.998C256.171 433.883 256.076 433.745 256.01 433.593C255.944 433.441 255.909 433.278 255.906 433.112L250.692 381.904C250.658 381.74 250.659 381.571 250.693 381.407C250.728 381.243 250.796 381.088 250.893 380.951C251.007 380.832 251.145 380.736 251.297 380.67C251.449 380.604 251.613 380.569 251.778 380.567L255.99 380.132C256.102 380.135 256.214 380.113 256.316 380.066C256.418 380.019 256.508 379.949 256.579 379.862C256.65 379.775 256.7 379.672 256.726 379.563C256.751 379.453 256.751 379.339 256.725 379.23C256.717 379.122 256.686 379.017 256.634 378.922C256.582 378.827 256.511 378.744 256.424 378.678C256.283 378.562 256.106 378.497 255.923 378.495H255.84L238.96 380.166C238.742 380.197 238.544 380.31 238.408 380.483C238.338 380.563 238.286 380.656 238.254 380.756C238.222 380.857 238.212 380.963 238.224 381.068C238.233 381.176 238.264 381.281 238.316 381.376C238.368 381.471 238.439 381.554 238.525 381.62C238.606 381.692 238.702 381.746 238.806 381.778C238.91 381.809 239.019 381.818 239.127 381.804L243.338 381.369C243.504 381.338 243.673 381.341 243.837 381.378C244.001 381.416 244.156 381.487 244.291 381.586C244.413 381.701 244.511 381.837 244.58 381.989C244.648 382.141 244.687 382.305 244.692 382.472L249.923 433.68C249.962 433.844 249.963 434.014 249.925 434.177C249.887 434.341 249.811 434.494 249.704 434.623C249.597 434.753 249.462 434.856 249.309 434.924C249.155 434.993 248.988 435.024 248.82 435.017L244.609 435.452C244.501 435.46 244.396 435.491 244.301 435.543C244.206 435.595 244.123 435.666 244.057 435.753C243.987 435.835 243.935 435.931 243.904 436.035C243.872 436.138 243.862 436.247 243.873 436.354C243.882 436.462 243.913 436.567 243.965 436.662C244.017 436.757 244.088 436.84 244.174 436.906C244.345 437.039 244.559 437.104 244.776 437.09L261.656 435.418C261.762 435.412 261.865 435.382 261.958 435.329C262.05 435.277 262.13 435.205 262.19 435.118C262.266 435.042 262.324 434.95 262.359 434.848C262.393 434.747 262.404 434.639 262.391 434.533C262.388 434.42 262.364 434.308 262.318 434.205C262.272 434.102 262.206 434.008 262.124 433.931C262.032 433.861 261.926 433.812 261.814 433.786C261.701 433.76 261.585 433.758 261.472 433.78Z" fill="white"/>
<path d="M213.406 381.82C210.107 378.591 205.915 376.426 201.372 375.603C199.749 375.279 198.097 375.117 196.442 375.119C193.342 375.085 190.273 375.735 187.454 377.024C184.634 378.312 182.134 380.207 180.13 382.572C180.009 382.74 179.944 382.942 179.944 383.149C179.944 383.356 180.009 383.558 180.13 383.726C180.214 383.817 180.318 383.888 180.435 383.931C180.551 383.975 180.676 383.99 180.799 383.976C181.082 383.925 181.343 383.791 181.551 383.592C183.964 380.865 187.063 378.834 190.526 377.709C193.698 376.684 197.077 376.471 200.353 377.091C203.916 377.77 207.117 379.703 209.378 382.539C211.907 385.784 213.549 389.632 214.141 393.703C214.92 398.564 214.801 403.526 213.79 408.344C212.951 413.169 211.253 417.806 208.776 422.031C206.762 425.569 203.888 428.541 200.42 430.672C197.455 432.468 193.931 433.104 190.526 432.46C188.392 432.152 186.346 431.397 184.524 430.245C182.701 429.093 181.141 427.57 179.947 425.775C177.464 421.327 176.223 416.294 176.353 411.201C176.351 410.946 176.276 410.697 176.136 410.483C176.01 410.283 175.813 410.14 175.585 410.082C175.477 410.067 175.367 410.076 175.264 410.108C175.16 410.139 175.064 410.193 174.983 410.266C174.807 410.463 174.691 410.706 174.649 410.968L172.158 428.8C172.1 428.945 172.1 429.107 172.158 429.251C172.229 429.372 172.342 429.462 172.476 429.502C172.71 429.502 172.91 429.502 173.078 429.168L175.05 425.357C177.019 427.58 179.319 429.485 181.869 431.006C184.656 432.585 187.69 433.681 190.843 434.248C195.233 435.143 199.792 434.658 203.896 432.861C208.157 430.965 211.82 427.943 214.492 424.12C217.531 419.796 219.58 414.854 220.492 409.647C221.601 404.454 221.521 399.078 220.258 393.92C219.121 389.337 216.751 385.153 213.406 381.82V381.82Z" fill="white"/>
<path d="M162.733 362.484L147.206 352.64C147.083 352.556 146.938 352.509 146.789 352.506H146.588C146.376 352.55 146.189 352.676 146.07 352.857C146.012 352.948 145.973 353.05 145.955 353.156C145.938 353.262 145.943 353.371 145.97 353.476C146.017 353.686 146.142 353.872 146.321 353.994L150.516 356.668C150.667 356.736 150.8 356.839 150.904 356.969C151.009 357.098 151.081 357.249 151.117 357.411C151.153 357.574 151.15 357.742 151.11 357.903C151.069 358.064 150.991 358.213 150.883 358.339L122.522 402.778L114.399 397.597C112.874 396.733 111.561 395.54 110.555 394.104C109.911 392.98 109.636 391.683 109.77 390.394C110.052 388.136 110.499 385.902 111.107 383.709C111.154 383.472 111.13 383.227 111.038 383.004C110.946 382.78 110.789 382.59 110.589 382.455C110.47 382.379 110.327 382.349 110.188 382.372C109.935 382.466 109.727 382.651 109.603 382.89C109.481 383.085 109.381 383.292 109.302 383.508L105.157 393.536L143.212 417.82L150.599 409.798C150.771 409.649 150.918 409.474 151.034 409.28C151.12 409.176 151.184 409.056 151.222 408.926C151.259 408.797 151.269 408.661 151.251 408.527C151.24 408.458 151.213 408.391 151.172 408.333C151.132 408.276 151.079 408.228 151.017 408.193C150.813 408.06 150.575 407.989 150.332 407.989C150.088 407.989 149.85 408.06 149.646 408.193C147.932 409.663 146.111 411.004 144.198 412.204C143.079 412.864 141.781 413.156 140.488 413.04C138.779 412.765 137.152 412.114 135.725 411.135L127.602 405.954L156.014 361.548C156.083 361.397 156.186 361.264 156.315 361.159C156.444 361.055 156.596 360.982 156.758 360.946C156.92 360.911 157.088 360.913 157.249 360.954C157.41 360.994 157.559 361.072 157.685 361.18L161.88 363.854C161.971 363.921 162.073 363.968 162.182 363.994C162.292 364.02 162.405 364.023 162.515 364.005C162.728 363.941 162.908 363.797 163.017 363.603C163.075 363.513 163.114 363.411 163.131 363.305C163.148 363.198 163.144 363.09 163.117 362.985C163.089 362.88 163.041 362.782 162.975 362.696C162.909 362.61 162.827 362.538 162.733 362.484V362.484Z" fill="white"/>
<path d="M84.8844 370.623C84.6461 370.389 84.5083 370.071 84.5 369.737C84.5591 369.407 84.7375 369.109 85.0014 368.901L123.675 334.991C123.782 334.871 123.915 334.778 124.064 334.716C124.213 334.655 124.374 334.629 124.535 334.638C124.695 334.648 124.852 334.694 124.992 334.772C125.133 334.851 125.254 334.96 125.346 335.091L128.137 338.284C128.276 338.464 128.48 338.584 128.705 338.618V338.618C128.919 338.607 129.121 338.518 129.274 338.367C129.354 338.295 129.419 338.208 129.465 338.11C129.511 338.013 129.537 337.907 129.541 337.799C129.553 337.693 129.542 337.585 129.507 337.484C129.472 337.383 129.415 337.29 129.34 337.214L118.176 324.445C118.104 324.365 118.017 324.3 117.919 324.254C117.822 324.208 117.716 324.182 117.608 324.178C117.404 324.178 117.207 324.255 117.058 324.395C116.909 324.535 116.819 324.726 116.806 324.93C116.796 325.039 116.808 325.148 116.843 325.252C116.877 325.356 116.933 325.451 117.006 325.532L119.797 328.724C119.917 328.839 120.012 328.976 120.078 329.128C120.144 329.28 120.179 329.444 120.182 329.61C120.16 329.776 120.104 329.936 120.018 330.08C119.932 330.223 119.817 330.348 119.68 330.445L81.0237 364.339C80.915 364.458 80.7808 364.55 80.6313 364.61C80.4817 364.67 80.3205 364.695 80.1598 364.684C79.9992 364.673 79.8431 364.625 79.7033 364.545C79.5635 364.465 79.4436 364.355 79.3525 364.222L76.5113 360.996C76.4394 360.916 76.3521 360.851 76.2544 360.805C76.1568 360.759 76.0509 360.733 75.943 360.729C75.8343 360.719 75.7247 360.731 75.6211 360.766C75.5175 360.8 75.4222 360.856 75.3414 360.929C75.1818 361.077 75.0858 361.281 75.074 361.498C75.0651 361.604 75.0783 361.711 75.1129 361.811C75.1474 361.912 75.2024 362.004 75.2745 362.083L86.4387 374.851C86.5105 374.932 86.5979 374.997 86.6955 375.043C86.7932 375.089 86.8991 375.115 87.0069 375.119C87.1156 375.129 87.2253 375.116 87.3289 375.082C87.4325 375.047 87.5277 374.991 87.6086 374.918C87.783 374.783 87.8972 374.585 87.9261 374.367C87.9288 374.254 87.9078 374.143 87.8646 374.039C87.8214 373.935 87.757 373.842 87.6754 373.765L84.8844 370.623Z" fill="white"/>
<path d="M95.8813 317.259C99.0522 313.789 101.214 309.518 102.132 304.908C102.93 300.377 102.409 295.713 100.631 291.47C98.8536 287.227 95.8937 283.584 92.1042 280.975C88.1674 278.414 83.5964 276.996 78.9011 276.881C78.5 276.881 78.0822 276.881 77.6476 276.881C72.771 276.95 67.9578 277.996 63.4919 279.956C58.5719 281.935 54.1535 284.984 50.5562 288.881C47.3783 292.335 45.2103 296.596 44.2889 301.198C43.5099 305.736 44.0484 310.403 45.8404 314.645C47.6325 318.886 50.6031 322.526 54.4001 325.131C58.3248 327.667 62.8657 329.089 67.5364 329.242C72.8398 329.399 78.111 328.365 82.9623 326.217C87.8851 324.236 92.3001 321.175 95.8813 317.259V317.259ZM66.0991 323.509H64.4278C60.97 323.583 57.5408 322.869 54.4001 321.42C51.1999 319.892 48.6643 317.252 47.2654 313.993C45.8665 310.734 45.6996 307.078 46.7958 303.705C48.1412 299.908 50.4439 296.523 53.4809 293.878C57.159 290.611 61.3705 287.999 65.932 286.156C70.4585 284.167 75.2907 282.963 80.2214 282.597C84.2315 282.259 88.2609 282.961 91.9204 284.636C95.1228 286.158 97.6474 288.814 99.0066 292.089C100.435 295.352 100.584 299.033 99.4244 302.401C98.0655 306.196 95.7652 309.583 92.7393 312.245C89.0683 315.517 84.8623 318.135 80.305 319.983C75.8085 321.969 71.0023 323.162 66.0991 323.509V323.509Z" fill="white"/>
</svg>
