<svg width="95" height="53" viewBox="0 0 95 53" fill="none" xmlns="http://www.w3.org/2000/svg">
<g clip-path="url(#clip0_81_2)">
<path d="M18.0124 49.4258C17.9819 49.3961 17.9412 49.3793 17.8987 49.3787C17.8767 49.3789 17.855 49.3836 17.835 49.3927C17.8149 49.4018 17.797 49.415 17.7823 49.4314C17.7665 49.4469 17.7539 49.4655 17.7454 49.486C17.7368 49.5065 17.7324 49.5285 17.7325 49.5507L17.7574 50.7162C17.7625 50.785 17.7417 50.8533 17.6992 50.9076C17.6737 50.9304 17.6438 50.9477 17.6115 50.9587C17.5791 50.9697 17.5449 50.974 17.5108 50.9714L8.05567 51.1657L17.9403 43.532V43.0575L6.85577 43.2823C6.79048 43.2867 6.72599 43.2659 6.67564 43.224C6.65288 43.199 6.63547 43.1696 6.62451 43.1377C6.61355 43.1057 6.60926 43.0718 6.61191 43.0381L6.56757 42.1779C6.56706 42.1559 6.56213 42.1343 6.55308 42.1142C6.54404 42.0942 6.53106 42.0762 6.51492 42.0613C6.48446 42.0316 6.4438 42.0148 6.4013 42.0142C6.37925 42.014 6.35742 42.0186 6.33733 42.0277C6.31723 42.0368 6.29935 42.0502 6.28491 42.0669C6.25418 42.0989 6.23726 42.1418 6.23781 42.1862L6.29877 45.2053C6.30099 45.2494 6.3198 45.291 6.35142 45.3218C6.38273 45.3519 6.4244 45.3688 6.46781 45.369C6.49073 45.372 6.51402 45.3695 6.53581 45.3618C6.55759 45.3541 6.57725 45.3413 6.59318 45.3245C6.60911 45.3078 6.62087 45.2875 6.62749 45.2653C6.63412 45.2431 6.63542 45.2197 6.63131 45.1969L6.60914 44.0315C6.6032 43.9976 6.6053 43.9628 6.61528 43.9299C6.62525 43.897 6.64282 43.8669 6.66656 43.8421C6.6903 43.8172 6.71954 43.7983 6.75193 43.7869C6.78432 43.7754 6.81894 43.7718 6.853 43.7762L15.8315 43.5931L6.40962 50.6773L6.45395 52.8112C6.45447 52.8332 6.4594 52.8548 6.46844 52.8748C6.47749 52.8948 6.49047 52.9128 6.50661 52.9277C6.53791 52.9578 6.57959 52.9747 6.62299 52.9749C6.64569 52.9763 6.66844 52.9731 6.68986 52.9654C6.71129 52.9578 6.73096 52.9459 6.74769 52.9305C6.76246 52.913 6.77351 52.8926 6.78018 52.8707C6.78685 52.8487 6.789 52.8257 6.78649 52.8029L6.76986 51.9371C6.76392 51.9032 6.76603 51.8684 6.776 51.8355C6.78598 51.8026 6.80355 51.7725 6.82728 51.7477C6.85102 51.7228 6.88027 51.7039 6.91266 51.6925C6.94504 51.681 6.97967 51.6774 7.01372 51.6818L17.5274 51.4654C17.5609 51.4608 17.5949 51.464 17.627 51.4748C17.659 51.4856 17.6881 51.5036 17.7119 51.5275C17.7358 51.5515 17.7539 51.5806 17.7646 51.6126C17.7754 51.6447 17.7786 51.6788 17.774 51.7123L17.7907 52.5781C17.7885 52.6005 17.7913 52.6231 17.7989 52.6443C17.8065 52.6654 17.8187 52.6847 17.8346 52.7006C17.8505 52.7165 17.8697 52.7287 17.8908 52.7363C17.912 52.7439 17.9346 52.7467 17.9569 52.7446C18.001 52.7424 18.0426 52.7235 18.0733 52.6919C18.0893 52.6766 18.1019 52.658 18.11 52.6374C18.1181 52.6168 18.1217 52.5947 18.1204 52.5725L18.0595 49.5507C18.0612 49.5277 18.0578 49.5046 18.0497 49.4831C18.0416 49.4615 18.0288 49.442 18.0124 49.4258Z" fill="#231F20"/>
<path d="M19.3038 30.4681C18.5543 29.6831 17.6399 29.0746 16.6269 28.6866C15.6268 28.2702 14.547 28.0806 13.465 28.1317C12.5066 28.1763 11.5787 28.4834 10.7825 29.0196C10.0149 29.5647 9.42012 30.3194 9.06927 31.1938C8.71842 32.0682 8.62631 33.0252 8.80396 33.9506C9.00936 34.888 9.4664 35.7515 10.1258 36.448C10.8698 37.2382 11.7832 37.8492 12.7972 38.235C13.6754 38.6029 14.6163 38.7979 15.5683 38.8094C15.6985 38.8094 15.8288 38.8094 15.9563 38.8094C16.9158 38.7616 17.8442 38.4527 18.6415 37.9159C19.4086 37.3704 20.003 36.6155 20.3538 35.7413C20.7046 34.8671 20.797 33.9103 20.6201 32.9849C20.422 32.0403 19.9664 31.1691 19.3038 30.4681ZM20.0492 35.5961C19.7855 36.275 19.2773 36.8304 18.6249 37.1528C17.8797 37.5072 17.0567 37.6657 16.2334 37.6134C15.2294 37.561 14.2421 37.3347 13.3154 36.9447C12.3758 36.5825 11.5059 36.0605 10.7438 35.4018C10.114 34.8697 9.62959 34.186 9.33601 33.415C9.09602 32.73 9.11297 31.981 9.3837 31.3076C9.65443 30.6342 10.1605 30.0824 10.8075 29.755C11.4666 29.4317 12.1937 29.2718 12.9274 29.2888H13.2045C14.2058 29.349 15.1897 29.5789 16.1142 29.9686C17.0522 30.3302 17.9218 30.8491 18.6858 31.5031C19.3195 32.0316 19.8047 32.7164 20.0936 33.4899C20.3405 34.1731 20.3247 34.9239 20.0492 35.5961Z" fill="#231F20"/>
<path d="M21.7451 14.5988L22.3576 13.9855C22.3729 13.9698 22.385 13.9511 22.3931 13.9306C22.4011 13.9101 22.4051 13.8882 22.4047 13.8662C22.4027 13.835 22.3922 13.8049 22.3742 13.7793C22.3562 13.7537 22.3314 13.7336 22.3027 13.7213C22.274 13.7089 22.2424 13.7048 22.2115 13.7093C22.1806 13.7138 22.1515 13.7268 22.1276 13.7469L19.9966 15.8863C19.9802 15.9014 19.9675 15.9199 19.9593 15.9406C19.9512 15.9612 19.9478 15.9835 19.9494 16.0057C19.9485 16.0277 19.9523 16.0498 19.9604 16.0703C19.9685 16.0909 19.9808 16.1095 19.9966 16.125C20.0106 16.1429 20.0284 16.1573 20.0488 16.1673C20.0692 16.1772 20.0916 16.1824 20.1143 16.1824C20.137 16.1824 20.1594 16.1772 20.1798 16.1673C20.2002 16.1573 20.2181 16.1429 20.2321 16.125L21.0634 15.2925C21.0838 15.265 21.1103 15.2426 21.1409 15.2272C21.1714 15.2117 21.2052 15.2037 21.2394 15.2037C21.2736 15.2037 21.3074 15.2117 21.3379 15.2272C21.3685 15.2426 21.395 15.265 21.4154 15.2925L27.7585 21.6442L16.1197 19.7573L14.615 21.2668C14.5997 21.2826 14.5876 21.3013 14.5795 21.3217C14.5714 21.3422 14.5675 21.3641 14.5679 21.3861C14.5674 21.4305 14.5843 21.4734 14.615 21.5054C14.6293 21.5234 14.6474 21.5378 14.668 21.5478C14.6887 21.5577 14.7113 21.5629 14.7342 21.5629C14.7571 21.5629 14.7797 21.5577 14.8003 21.5478C14.8209 21.5378 14.8391 21.5234 14.8533 21.5054L15.4657 20.8922C15.4861 20.8647 15.5126 20.8423 15.5432 20.8268C15.5737 20.8114 15.6075 20.8034 15.6417 20.8034C15.6759 20.8034 15.7097 20.8114 15.7402 20.8268C15.7708 20.8423 15.7973 20.8647 15.8177 20.8922L23.2609 28.3344C23.2885 28.3551 23.3108 28.3819 23.3262 28.4127C23.3416 28.4435 23.3496 28.4775 23.3496 28.512C23.3496 28.5464 23.3416 28.5804 23.3262 28.6113C23.3108 28.6421 23.2885 28.6689 23.2609 28.6896L22.6485 29.3028C22.6313 29.3178 22.6173 29.336 22.6073 29.3565C22.5973 29.377 22.5915 29.3994 22.5903 29.4221C22.5944 29.4675 22.6164 29.5095 22.6513 29.5387C22.6661 29.5545 22.6842 29.5669 22.7043 29.5751C22.7244 29.5832 22.746 29.5869 22.7677 29.5859C22.7898 29.5869 22.8118 29.5833 22.8324 29.5752C22.8529 29.567 22.8715 29.5546 22.8868 29.5387L25.0178 27.402C25.0338 27.3865 25.0464 27.368 25.0551 27.3475C25.0637 27.327 25.0682 27.305 25.0682 27.2827C25.0682 27.2605 25.0637 27.2385 25.0551 27.218C25.0464 27.1975 25.0338 27.1789 25.0178 27.1634C25.0027 27.148 24.9846 27.1358 24.9645 27.1277C24.9445 27.1196 24.923 27.1157 24.9015 27.1162C24.8795 27.1158 24.8576 27.1198 24.8372 27.1279C24.8167 27.136 24.7981 27.148 24.7823 27.1634L23.951 27.9959C23.9303 28.0234 23.9035 28.0458 23.8728 28.0612C23.842 28.0766 23.808 28.0847 23.7736 28.0847C23.7392 28.0847 23.7052 28.0766 23.6745 28.0612C23.6437 28.0458 23.6169 28.0234 23.5963 27.9959L16.904 21.3029L29.2521 23.1454L29.5764 22.8235L21.7451 14.954C21.7176 14.9333 21.6953 14.9065 21.6799 14.8757C21.6645 14.8448 21.6565 14.8108 21.6565 14.7764C21.6565 14.7419 21.6645 14.7079 21.6799 14.6771C21.6953 14.6463 21.7176 14.6195 21.7451 14.5988Z" fill="#231F20"/>
<path d="M37.5516 8.79635L36.2713 6.71798V6.7041L28.4456 9.88965C28.4063 9.90894 28.375 9.94132 28.3569 9.98122C28.3481 10.0013 28.3435 10.0231 28.3435 10.045C28.3435 10.067 28.3481 10.0888 28.3569 10.1089C28.3637 10.1305 28.3748 10.1505 28.3896 10.1677C28.4044 10.1849 28.4225 10.1988 28.4428 10.2088C28.4639 10.2176 28.4865 10.2222 28.5093 10.2222C28.5322 10.2222 28.5548 10.2176 28.5759 10.2088L29.3795 9.88133C29.4089 9.86387 29.4419 9.85355 29.476 9.85118C29.5101 9.84881 29.5442 9.85445 29.5757 9.86767C29.6073 9.88088 29.6352 9.90129 29.6575 9.92728C29.6797 9.95326 29.6955 9.98409 29.7037 10.0173L33.6692 19.771C33.6872 19.8005 33.698 19.8338 33.7006 19.8683C33.7033 19.9028 33.6978 19.9374 33.6845 19.9693C33.6713 20.0012 33.6507 20.0296 33.6244 20.052C33.5982 20.0744 33.567 20.0903 33.5334 20.0984L32.7298 20.4258C32.6866 20.4404 32.6508 20.4712 32.63 20.5119C32.6205 20.5328 32.6156 20.5555 32.6156 20.5784C32.6156 20.6014 32.6205 20.6241 32.63 20.645C32.638 20.6656 32.6503 20.6841 32.666 20.6995C32.6818 20.7148 32.7007 20.7265 32.7215 20.7338C32.7433 20.739 32.7661 20.739 32.788 20.7338C32.8081 20.7378 32.8288 20.7378 32.8489 20.7338L36.4736 19.2576C36.4941 19.2497 36.5126 19.2374 36.5279 19.2215C36.5432 19.2057 36.555 19.1868 36.5623 19.166C36.5711 19.1459 36.5757 19.1242 36.5757 19.1022C36.5757 19.0802 36.5711 19.0585 36.5623 19.0384C36.554 19.0177 36.5417 18.9989 36.526 18.9832C36.5102 18.9674 36.4915 18.9551 36.4708 18.9468C36.4507 18.938 36.429 18.9334 36.4071 18.9334C36.3851 18.9334 36.3634 18.938 36.3433 18.9468L35.1268 19.4435C35.0953 19.457 35.0613 19.4639 35.0271 19.4639C34.9928 19.4639 34.9588 19.457 34.9273 19.4435C34.8971 19.4284 34.8703 19.4073 34.8484 19.3816C34.8265 19.3558 34.81 19.3259 34.7998 19.2937L32.5691 13.7911L34.6668 12.9337C34.9359 12.8132 35.2284 12.7544 35.5231 12.7616C35.7911 12.7931 36.0384 12.9214 36.2186 13.1224C36.504 13.443 36.736 13.8075 36.9059 14.2018C36.9305 14.2364 36.9627 14.2649 37.0001 14.285C37.0166 14.2943 37.0352 14.2991 37.0541 14.2991C37.0731 14.2991 37.0917 14.2943 37.1082 14.285C37.1255 14.2776 37.1408 14.2662 37.1528 14.2518C37.1648 14.2373 37.1733 14.2202 37.1775 14.2018C37.1926 14.1625 37.1926 14.119 37.1775 14.0797L35.5841 10.1838C35.5685 10.1443 35.5402 10.1111 35.5037 10.0894C35.4863 10.0815 35.4674 10.0773 35.4483 10.0773C35.4291 10.0773 35.4102 10.0815 35.3928 10.0894C35.3605 10.1048 35.3349 10.1314 35.3208 10.1644C35.3093 10.2052 35.3093 10.2484 35.3208 10.2892C35.4429 10.6743 35.5064 11.0756 35.5092 11.4797C35.5087 11.7345 35.4207 11.9814 35.2598 12.1789C35.0614 12.3819 34.8199 12.5374 34.5532 12.634L32.4527 13.4914L30.7595 9.32913L33.9657 8.02216C34.3297 7.86146 34.721 7.77198 35.1185 7.75855H35.1407C35.5021 7.76923 35.8538 7.87861 36.1577 8.07489C36.5746 8.34989 36.957 8.6741 37.2966 9.04054C37.3219 9.07261 37.3571 9.09542 37.3967 9.10545C37.4362 9.11548 37.478 9.11217 37.5155 9.09604C37.5366 9.08877 37.5555 9.07633 37.5705 9.05984C37.5855 9.04336 37.5962 9.02336 37.6014 9.00169C37.6118 8.95188 37.6049 8.90004 37.582 8.85463L37.5516 8.79635Z" fill="#231F20"/>
<path d="M46.1532 16.7655L45.2914 16.8543C45.2577 16.8607 45.2232 16.86 45.1898 16.8523C45.1564 16.8447 45.125 16.8303 45.0974 16.8099C45.0723 16.787 45.0523 16.7592 45.0384 16.7281C45.0246 16.6971 45.0173 16.6636 45.017 16.6296L43.9474 6.15444C43.9381 6.12101 43.9369 6.08586 43.9439 6.05187C43.9509 6.01789 43.9658 5.98605 43.9874 5.95896C44.0091 5.93187 44.0368 5.91031 44.0684 5.89606C44.1 5.8818 44.1345 5.87525 44.1691 5.87695L45.0309 5.78815C45.0753 5.78335 45.116 5.76145 45.1445 5.72711C45.1584 5.7102 45.1687 5.69068 45.1749 5.66971C45.1811 5.64874 45.183 5.62674 45.1805 5.60501C45.1788 5.58286 45.1724 5.56132 45.162 5.54174C45.1515 5.52216 45.137 5.50497 45.1196 5.49124C45.103 5.4768 45.0836 5.46609 45.0625 5.45987C45.0415 5.45364 45.0194 5.45204 44.9977 5.45517L41.5504 5.80758C41.5286 5.80903 41.5073 5.81525 41.4882 5.8258C41.469 5.83634 41.4524 5.85096 41.4395 5.86863C41.4247 5.88505 41.4137 5.90443 41.407 5.92548C41.4003 5.94654 41.3981 5.96878 41.4007 5.99072C41.4028 6.03704 41.4227 6.08076 41.4561 6.11281C41.4742 6.12626 41.4949 6.1357 41.5169 6.14048C41.5389 6.14527 41.5616 6.14529 41.5836 6.14056L42.4454 6.05454C42.4789 6.04765 42.5134 6.0478 42.5468 6.05496C42.5802 6.06213 42.6117 6.07616 42.6394 6.09616C42.6641 6.11938 42.6839 6.14728 42.6977 6.17825C42.7115 6.20922 42.719 6.24263 42.7198 6.27653L43.7839 16.7544C43.7962 16.8221 43.7812 16.892 43.7423 16.9487C43.7191 16.9734 43.6913 16.9932 43.6604 17.0071C43.6294 17.0209 43.5961 17.0284 43.5622 17.0292L42.7004 17.1179C42.6774 17.1168 42.6545 17.1211 42.6335 17.1304C42.6125 17.1397 42.594 17.1539 42.5794 17.1717C42.5648 17.1895 42.5547 17.2105 42.5497 17.233C42.5447 17.2555 42.5451 17.2788 42.5507 17.3011C42.5522 17.3233 42.5583 17.345 42.5689 17.3646C42.5794 17.3842 42.594 17.4014 42.6117 17.4149C42.6404 17.4392 42.6766 17.453 42.7142 17.4537H42.7336L46.1809 17.0985C46.2027 17.0971 46.224 17.0909 46.2431 17.0803C46.2623 17.0698 46.2789 17.0551 46.2918 17.0375C46.3065 17.0211 46.3176 17.0017 46.3243 16.9806C46.331 16.9596 46.3331 16.9373 46.3306 16.9154C46.3284 16.8937 46.3219 16.8727 46.3114 16.8536C46.301 16.8345 46.2867 16.8178 46.2696 16.8044C46.2538 16.7905 46.2353 16.7799 46.2153 16.7732C46.1953 16.7665 46.1742 16.7639 46.1532 16.7655Z" fill="#231F20"/>
<path d="M59.7818 7.03166C59.7572 7.02699 59.7319 7.03075 59.7097 7.04233C59.6876 7.05392 59.67 7.07264 59.6598 7.09548L59.258 7.87522C58.8582 7.42133 58.3909 7.03196 57.8725 6.72087C57.3044 6.39621 56.6848 6.17187 56.0407 6.05768C55.1447 5.8744 54.2141 5.97127 53.3749 6.33516C52.505 6.72466 51.757 7.34324 51.2107 8.12495C50.5839 9.01299 50.1609 10.0288 49.972 11.0996C49.7458 12.1615 49.7619 13.2609 50.0191 14.3157C50.2458 15.2506 50.7252 16.105 51.4046 16.7853C52.0793 17.4394 52.9347 17.8754 53.8599 18.0368C54.1921 18.1022 54.5299 18.1356 54.8686 18.1367C55.3259 18.1382 55.7808 18.0709 56.2181 17.9369C56.9826 17.6839 57.6651 17.2296 58.1939 16.6216C58.2184 16.5866 58.2315 16.545 58.2315 16.5023C58.2315 16.4596 58.2184 16.4179 58.1939 16.383C58.1773 16.3638 58.1562 16.3492 58.1324 16.3405C58.1087 16.3317 58.0831 16.3292 58.0581 16.333C58.0003 16.3427 57.9465 16.3687 57.9029 16.4079C57.4148 16.968 56.7849 17.386 56.0795 17.6178C55.4311 17.8283 54.74 17.8713 54.0705 17.7427C53.3439 17.6059 52.6908 17.2119 52.2304 16.6327C51.7185 15.966 51.3864 15.1786 51.2661 14.3462C51.1088 13.3511 51.1332 12.3357 51.3381 11.3494C51.514 10.3616 51.865 9.41339 52.3745 8.54951C52.7907 7.82484 53.3825 7.21691 54.0954 6.78192C54.7015 6.41688 55.4201 6.28659 56.1156 6.41564C56.5524 6.47967 56.9708 6.63507 57.3437 6.87172C57.7166 7.10837 58.0355 7.42097 58.2798 7.7892C58.7371 8.51344 58.9837 9.51794 59.0142 10.7722C59.0131 10.8246 59.0287 10.8761 59.0585 10.9192C59.0706 10.9394 59.0867 10.957 59.1057 10.9708C59.1248 10.9846 59.1464 10.9945 59.1694 10.9997C59.1911 11.0041 59.2135 11.0031 59.2348 10.9969C59.256 10.9906 59.2754 10.9792 59.2913 10.9636C59.3289 10.924 59.3531 10.8735 59.3606 10.8194L59.8566 7.1704C59.8597 7.15462 59.8596 7.13837 59.8562 7.12263C59.8529 7.10689 59.8464 7.09199 59.8372 7.07883C59.8253 7.05668 59.8055 7.03984 59.7818 7.03166Z" fill="#231F20"/>
<path d="M65.1215 22.4766L64.2653 21.9216C64.234 21.9072 64.2066 21.8857 64.1851 21.8589C64.1636 21.832 64.1486 21.8005 64.1414 21.7669C64.1341 21.7332 64.1348 21.6984 64.1433 21.665C64.1518 21.6317 64.1679 21.6008 64.1904 21.5747L69.971 12.487L71.6337 13.5498C71.9442 13.7259 72.212 13.9684 72.4179 14.2602C72.5488 14.4909 72.6049 14.7565 72.5787 15.0205C72.522 15.4803 72.4294 15.9349 72.3015 16.3802C72.2921 16.4284 72.297 16.4783 72.3157 16.5237C72.3345 16.5691 72.3662 16.608 72.4069 16.6355C72.4186 16.6443 72.432 16.6507 72.4464 16.654C72.4607 16.6573 72.4755 16.6577 72.49 16.6549C72.5415 16.6359 72.584 16.5983 72.6091 16.5495C72.6352 16.5109 72.6557 16.4689 72.6701 16.4246L73.5153 14.374L65.7423 9.39307L64.232 11.033C64.1986 11.0661 64.1697 11.1034 64.1461 11.144C64.1285 11.165 64.1152 11.1893 64.1071 11.2155C64.099 11.2418 64.0963 11.2693 64.099 11.2966C64.1071 11.3241 64.1248 11.3477 64.1489 11.3632C64.1914 11.3883 64.2403 11.4003 64.2895 11.3979C64.3388 11.3954 64.3862 11.3785 64.426 11.3494C64.7741 11.0486 65.1447 10.775 65.5344 10.5308C65.7625 10.3958 66.027 10.3356 66.291 10.3587C66.6429 10.4218 66.9762 10.5631 67.2664 10.7722L68.9291 11.8322L63.1374 20.9171C63.1235 20.9488 63.1022 20.9767 63.0755 20.9986C63.0487 21.0205 63.0171 21.0357 62.9833 21.043C62.9495 21.0503 62.9145 21.0495 62.881 21.0406C62.8476 21.0318 62.8168 21.0151 62.791 20.992L61.9375 20.437C61.9193 20.4227 61.8983 20.4126 61.8758 20.4073C61.8533 20.402 61.8299 20.4018 61.8073 20.4065C61.764 20.4191 61.7273 20.4479 61.7047 20.487C61.6928 20.5058 61.6848 20.5267 61.681 20.5486C61.6772 20.5705 61.6777 20.5929 61.6826 20.6146C61.6927 20.6575 61.7184 20.6951 61.7546 20.7201L64.9276 22.7541C64.9533 22.7702 64.9831 22.7789 65.0135 22.779H65.055C65.0979 22.7689 65.1354 22.7432 65.1603 22.7069C65.1834 22.6686 65.1904 22.6227 65.1797 22.5792C65.1743 22.5388 65.1534 22.502 65.1215 22.4766Z" fill="#231F20"/>
<path d="M70.5142 27.635C70.4896 27.6119 70.4701 27.5839 70.4567 27.5529C70.4434 27.5219 70.4365 27.4885 70.4366 27.4547C70.4406 27.4207 70.4515 27.3879 70.4686 27.3583C70.4858 27.3287 70.5088 27.3029 70.5363 27.2826L78.4479 20.3455C78.47 20.3191 78.4979 20.2983 78.5294 20.2848C78.561 20.2712 78.5953 20.2653 78.6295 20.2675C78.6638 20.2696 78.697 20.2798 78.7266 20.2972C78.7562 20.3146 78.7813 20.3387 78.7999 20.3677L79.3707 21.0225C79.3856 21.0387 79.4036 21.0517 79.4236 21.0607C79.4436 21.0698 79.4652 21.0747 79.4871 21.0752C79.509 21.078 79.5313 21.076 79.5523 21.0693C79.5734 21.0625 79.5927 21.0513 79.609 21.0364C79.6417 21.0073 79.6617 20.9664 79.6645 20.9226C79.6663 20.9005 79.6636 20.8782 79.6564 20.8572C79.6493 20.8362 79.6379 20.8169 79.6229 20.8005L77.3395 18.1894C77.3255 18.1727 77.3081 18.1591 77.2886 18.1495C77.269 18.14 77.2476 18.1346 77.2259 18.1339C77.192 18.1292 77.1575 18.1352 77.1272 18.1512C77.0969 18.1671 77.0724 18.1922 77.0571 18.2228C77.0418 18.2535 77.0365 18.2881 77.0419 18.322C77.0473 18.3558 77.0632 18.3871 77.0873 18.4114L77.6582 19.0635C77.6828 19.0871 77.7024 19.1156 77.7157 19.1471C77.7291 19.1785 77.7359 19.2124 77.7357 19.2466C77.7316 19.2802 77.7206 19.3125 77.7034 19.3416C77.6862 19.3707 77.6633 19.396 77.636 19.4159L69.7244 26.3614C69.7027 26.3883 69.6749 26.4096 69.6433 26.4235C69.6117 26.4374 69.5772 26.4435 69.5427 26.4413C69.5082 26.4392 69.4748 26.4287 69.4452 26.411C69.4156 26.3932 69.3906 26.3686 69.3725 26.3392L68.8016 25.6871C68.788 25.669 68.7709 25.6539 68.7514 25.6425C68.7319 25.631 68.7104 25.6236 68.688 25.6205C68.644 25.6224 68.6022 25.6404 68.5705 25.6711C68.5389 25.7017 68.5195 25.743 68.5162 25.787C68.5143 25.8091 68.5171 25.8314 68.5242 25.8524C68.5314 25.8734 68.5428 25.8927 68.5578 25.9091L70.8412 28.5174C70.8552 28.5342 70.8725 28.5477 70.8921 28.5573C70.9117 28.5669 70.933 28.5722 70.9548 28.5729H70.9686C71.0087 28.5736 71.0474 28.5586 71.0767 28.5313C71.0932 28.5166 71.1066 28.4987 71.1162 28.4786C71.1257 28.4586 71.1311 28.4369 71.1321 28.4148C71.1338 28.3933 71.1313 28.3717 71.1246 28.3512C71.118 28.3308 71.1073 28.3118 71.0933 28.2955L70.5142 27.635Z" fill="#231F20"/>
<path d="M79.1546 38.2488C80.1512 38.2339 81.1348 38.0197 82.0476 37.6189C83.0527 37.2133 83.9556 36.5897 84.6913 35.793C85.34 35.0854 85.7819 34.2128 85.9688 33.2707C86.1301 32.3424 86.0212 31.3873 85.6551 30.5193C85.289 29.6514 84.6812 28.9072 83.9043 28.3758C83.0949 27.8514 82.1577 27.5588 81.1941 27.5295C80.1115 27.5155 79.0377 27.7262 78.0404 28.1484C77.0431 28.5706 76.144 29.1951 75.3997 29.9824C74.7529 30.6921 74.3121 31.5653 74.1249 32.5076C73.9651 33.4379 74.0764 34.3946 74.4455 35.2632C74.8146 36.1318 75.4259 36.8754 76.2061 37.4052C77.0119 37.9243 77.9445 38.2123 78.9024 38.2377L79.1546 38.2488ZM76.2061 36.6532C75.5531 36.3372 75.0373 35.7941 74.7548 35.1252C74.4723 34.4563 74.4425 33.7074 74.6709 33.0182C74.9541 32.2404 75.431 31.5479 76.0564 31.0064C77.584 29.6814 79.491 28.8742 81.5045 28.7005H81.8592C82.5635 28.6862 83.2618 28.8324 83.9015 29.1278C84.554 29.4443 85.0695 29.9875 85.3519 30.6562C85.6343 31.3249 85.6645 32.0736 85.4367 32.7629C85.1573 33.5426 84.6797 34.236 84.0511 34.7746C82.5192 36.0925 80.6146 36.8987 78.6031 37.0806C77.7806 37.1491 76.9544 37.0018 76.2061 36.6532Z" fill="#231F20"/>
<path d="M88.7206 42.0837C88.6902 42.0515 88.6484 42.0326 88.6043 42.031C88.5819 42.0288 88.5593 42.0316 88.5382 42.0393C88.517 42.0469 88.4978 42.0591 88.4819 42.075C88.466 42.0909 88.4539 42.1101 88.4463 42.1313C88.4387 42.1525 88.4358 42.1751 88.438 42.1975L88.4214 43.0632C88.4234 43.1322 88.3997 43.1995 88.3549 43.2519C88.3301 43.273 88.3015 43.289 88.2706 43.299C88.2397 43.309 88.2071 43.3128 88.1747 43.3102L77.6611 43.0882C77.5922 43.0902 77.525 43.0665 77.4726 43.0216C77.4296 42.9676 77.4096 42.8988 77.4172 42.8301L77.4338 41.9644C77.4373 41.9417 77.4356 41.9185 77.4288 41.8966C77.4219 41.8747 77.4102 41.8547 77.3944 41.8381C77.3786 41.8214 77.3592 41.8087 77.3377 41.8007C77.3161 41.7928 77.2931 41.7899 77.2703 41.7923C77.2269 41.7925 77.1852 41.8094 77.1539 41.8395C77.1378 41.8544 77.1248 41.8724 77.1158 41.8924C77.1067 41.9124 77.1018 41.9341 77.1013 41.956L77.0375 44.9779C77.0381 45.0221 77.0549 45.0645 77.0847 45.0972C77.0997 45.113 77.1177 45.1255 77.1377 45.1341C77.1577 45.1427 77.1793 45.1471 77.201 45.1471C77.2222 45.1474 77.2432 45.1434 77.2627 45.1353C77.2823 45.1272 77.2999 45.1152 77.3147 45.1C77.3311 45.0853 77.3442 45.0673 77.3533 45.0473C77.3623 45.0272 77.3671 45.0054 77.3673 44.9834L77.3923 43.818C77.3879 43.7838 77.3917 43.7491 77.4031 43.7165C77.4145 43.684 77.4333 43.6546 77.4581 43.6307C77.4828 43.6067 77.5128 43.5888 77.5456 43.5785C77.5784 43.5681 77.6132 43.5656 77.6472 43.571L87.1051 43.7708L76.9128 50.9855V51.4433V51.4627L88.0112 51.6958C88.0452 51.692 88.0795 51.6961 88.1116 51.7077C88.1437 51.7193 88.1727 51.7383 88.1963 51.763C88.2199 51.7877 88.2375 51.8175 88.2477 51.8502C88.2579 51.8828 88.2604 51.9173 88.2551 51.9511L88.2385 52.8197C88.2372 52.8418 88.2408 52.8639 88.2489 52.8845C88.257 52.9051 88.2695 52.9237 88.2856 52.939C88.3163 52.9706 88.3579 52.9895 88.402 52.9917C88.4454 52.9915 88.487 52.9746 88.5184 52.9445C88.5502 52.9127 88.5689 52.8702 88.571 52.8252L88.6347 49.8061C88.6348 49.7839 88.6304 49.7619 88.6218 49.7414C88.6133 49.7209 88.6007 49.7024 88.5849 49.6868C88.5702 49.6704 88.5523 49.6572 88.5322 49.6482C88.5122 49.6391 88.4905 49.6343 88.4685 49.6341C88.4468 49.6326 88.4251 49.6356 88.4046 49.6427C88.3842 49.6499 88.3653 49.6611 88.3493 49.6757C88.3337 49.6918 88.3217 49.711 88.314 49.732C88.3064 49.7531 88.3033 49.7755 88.305 49.7978L88.28 50.966C88.2834 51.0344 88.2594 51.1013 88.2135 51.152C88.1876 51.1746 88.1571 51.1916 88.1242 51.2016C88.0912 51.2117 88.0565 51.2146 88.0223 51.2102L79.0466 51.0215L88.7456 44.3341L88.7899 42.2002C88.7879 42.1768 88.7807 42.1542 88.7687 42.134C88.7567 42.1138 88.7402 42.0966 88.7206 42.0837Z" fill="#231F20"/>
<path d="M0.712181 52.9168C0.508788 51.1398 0.406091 49.3527 0.404586 47.564C0.404586 21.5607 21.5317 0.405131 47.5 0.405131C73.4683 0.405131 94.6093 21.5607 94.6093 47.5779C94.6078 49.3665 94.5051 51.1536 94.3017 52.9306H94.7118C94.912 51.1534 95.0128 49.3664 95.0139 47.5779C95 21.336 73.6927 0 47.5 0C21.3072 0 0 21.336 0 47.564C0.00102967 49.3525 0.101871 51.1395 0.302054 52.9168H0.712181Z" fill="#231F20"/>
</g>
<defs>
<clipPath id="clip0_81_2">
<rect width="95" height="53" fill="white"/>
</clipPath>
</defs>
</svg>
